<svg width="39" height="40" viewBox="0 0 39 40" fill="none" xmlns="http://www.w3.org/2000/svg">
<path d="M37.3049 14.6612L28.0965 37.1373C27.6348 38.2641 26.538 39 25.3204 39H15.868C14.7245 39 13.6804 38.3499 13.1758 37.3236L2.12565 14.8474C1.14559 12.8539 2.59652 10.5238 4.81788 10.5238H7.33333L12.5071 3.13269C13.4428 1.79605 14.9717 1 16.6033 1H24.3112C26.1694 1 27.8744 2.03054 28.7381 3.67583L32.3333 10.5238H34.5289C36.662 10.5238 38.1136 12.6873 37.3049 14.6612Z" fill="#FF0606"/>
<path d="M7.33333 10.5238H4.81788C2.59652 10.5238 1.14559 12.8539 2.12565 14.8474L13.1758 37.3236C13.6804 38.3499 14.7245 39 15.868 39H25.3204C26.538 39 27.6348 38.2641 28.0965 37.1373L37.3049 14.6612C38.1136 12.6873 36.662 10.5238 34.5289 10.5238H32.3333M7.33333 10.5238L12.5071 3.13269C13.4428 1.79605 14.9717 1 16.6033 1H24.3112C26.1694 1 27.8744 2.03054 28.7381 3.67583L32.3333 10.5238M7.33333 10.5238H32.3333" stroke="white" stroke-width="2"/>
</svg>
