<svg width="145" height="1020" viewBox="0 0 145 1020" fill="none" xmlns="http://www.w3.org/2000/svg">
<path d="M67.2288 15.2892L95.1849 39.166M54.4619 30.2374L82.418 54.1141M83.0758 11.4017L50.6034 49.422M94.3853 21.061L61.9129 59.0813M63.2798 19.9129L62.6731 30.9017M57.5971 26.5664L68.3557 24.2481M73.6674 28.7847L73.5759 40.2136M67.9847 35.4383L79.2586 33.5601M84.8498 38.3354L85.5532 50.4432M79.1672 44.989L91.2359 43.7897M53.9261 18.4994L91.9464 50.9719" stroke="#E7E7E7" stroke-width="2"/>
<path d="M63.8158 123.612L98.2335 159.881M49.5563 137.144L83.974 173.412M82.3428 123.89L46.0741 158.307M96.2663 138.562L59.9976 172.98" stroke="#E6E6E6" stroke-width="2"/>
<path d="M47.5 242.427H97.5M47.5 262.085H97.5M60.4545 229.179V279.179M80.6818 229.179V279.179M47.5 267.008L55.3284 274.008M47.5 274.008L55.3284 267.008M74.154 254.899V254.899C72.6157 256.592 69.9752 256.654 68.3581 255.037L67.8222 254.501C66.1885 252.868 66.2418 250.203 67.9395 248.636V248.636C69.7385 246.975 72.586 247.268 74.009 249.26L74.4495 249.877C75.5458 251.412 75.4227 253.504 74.154 254.899Z" stroke="#E7E7E7" stroke-width="2"/>
<path d="M67.2288 338.468L95.1849 362.345M54.4619 353.417L82.418 377.293M83.0758 334.581L50.6034 372.601M94.3853 344.24L61.9129 382.26M63.2798 343.092L62.6731 354.081M57.5971 349.746L68.3557 347.427M73.6674 351.964L73.5759 363.393M67.9847 358.617L79.2586 356.739M84.8498 361.515L85.5532 373.622M79.1672 368.168L91.2359 366.969M53.9261 341.679L91.9464 374.151" stroke="#E7E7E7" stroke-width="2"/>
<path d="M47.5 450.92H97.5M47.5 470.578H97.5M60.4545 437.672V487.672M80.6818 437.672V487.672M47.5 475.5L55.3284 482.5M47.5 482.5L55.3284 475.5M74.154 463.392V463.392C72.6157 465.084 69.9752 465.147 68.3581 463.53L67.8222 462.994C66.1885 461.36 66.2418 458.696 67.9395 457.128V457.128C69.7385 455.468 72.586 455.761 74.009 457.753L74.4495 458.37C75.5458 459.905 75.4227 461.996 74.154 463.392Z" stroke="#E7E7E7" stroke-width="2"/>
<path d="M63.8158 540.791L98.2335 577.06M49.5563 554.323L83.974 590.592M82.3428 541.069L46.0741 575.486M96.2663 555.741L59.9976 590.159" stroke="#E6E6E6" stroke-width="2"/>
<path d="M47.5 659.606H97.5M47.5 679.264H97.5M60.4545 646.358V696.358M80.6818 646.358V696.358M47.5 684.187L55.3284 691.187M47.5 691.187L55.3284 684.187M74.154 672.079V672.079C72.6157 673.771 69.9752 673.834 68.3581 672.216L67.8222 671.681C66.1885 670.047 66.2418 667.382 67.9395 665.815V665.815C69.7385 664.154 72.586 664.447 74.009 666.44L74.4495 667.056C75.5458 668.591 75.4227 670.683 74.154 672.079Z" stroke="#E7E7E7" stroke-width="2"/>
<path d="M63.8158 749.478L98.2335 785.746M49.5563 763.009L83.974 799.278M82.3428 749.755L46.0741 784.173M96.2663 764.428L59.9976 798.845" stroke="#E6E6E6" stroke-width="2"/>
<path d="M47.5 868.293H97.5M47.5 887.951H97.5M60.4545 855.045V905.045M80.6818 855.045V905.045M47.5 892.873L55.3284 899.873M47.5 899.873L55.3284 892.873M74.154 880.765V880.765C72.6157 882.457 69.9752 882.52 68.3581 880.903L67.8222 880.367C66.1885 878.733 66.2418 876.069 67.9395 874.501V874.501C69.7385 872.841 72.586 873.134 74.009 875.126L74.4495 875.743C75.5458 877.278 75.4227 879.369 74.154 880.765Z" stroke="#E7E7E7" stroke-width="2"/>
<path d="M63.8158 958.164L98.2335 994.433M49.5563 971.696L83.974 1007.96M82.3428 958.442L46.0741 992.859M96.2663 973.114L59.9976 1007.53" stroke="#E6E6E6" stroke-width="2"/>
</svg>
