<svg width="22" height="26" viewBox="0 0 22 26" fill="none" xmlns="http://www.w3.org/2000/svg">
<path d="M18.7538 21.093L20.2276 11.7547C20.7104 8.69525 19.6161 5.57472 17.3471 3.46652V3.46652C15.6515 1.89116 13.4059 1 11.0914 1V1C8.85189 1 6.68983 1.81994 5.01347 3.305L4.94232 3.36803C2.49267 5.53813 1.34542 8.82447 1.91228 12.0476L3.50312 21.093M7.61538 14.6744H5.93211C4.68198 14.6744 3.83279 13.4044 4.31046 12.2491V12.2491C4.54718 11.6766 4.46446 11.0217 4.09282 10.526L3.17919 9.3074C2.62854 8.57295 2.93838 7.51549 3.79831 7.19434L3.83547 7.18046C4.35073 6.98803 4.69231 6.49585 4.69231 5.94583V5.94583C4.69231 5.21796 5.28236 4.62791 6.01023 4.62791H7.4366C8.14374 4.62791 8.82359 4.35494 9.33438 3.86592L9.41527 3.78848C10.5013 2.74871 12.1865 2.6651 13.3702 3.59227L14.0521 4.12646C14.473 4.4561 14.9657 4.6818 15.4901 4.78521L15.6571 4.81814C17.1526 5.11301 18.2308 6.42446 18.2308 7.94877V7.94877C18.2308 8.33627 18.3014 8.72053 18.4391 9.08274L18.8509 10.166C19.3359 11.4415 18.5799 12.8511 17.2491 13.1528V13.1528C16.5168 13.3189 15.9161 13.84 15.6483 14.5415L15.3846 15.2326M7.61538 14.6744V14.6744C7.61538 16.1941 9.23224 17.1678 10.5755 16.4572L11.3077 16.0698M7.61538 14.6744L1 25H7.61538L11.3077 16.0698M11.3077 16.0698L12.8269 16.5082C13.8814 16.8125 14.9932 16.258 15.3846 15.2326V15.2326M11.3077 16.0698L13.7692 25H21L15.3846 15.2326" stroke="black"/>
</svg>
