<svg width="18" height="20" viewBox="0 0 18 20" fill="none" xmlns="http://www.w3.org/2000/svg">
<path d="M17.2917 19.25L10.7292 12.6875C10.2083 13.1042 9.60937 13.434 8.93229 13.6771C8.25521 13.9201 7.53472 14.0417 6.77083 14.0417C4.87847 14.0417 3.27708 13.3861 1.96667 12.075C0.65625 10.7639 0.000694444 9.1625 0 7.27083C0 5.37847 0.655556 3.77708 1.96667 2.46667C3.27778 1.15625 4.87917 0.500694 6.77083 0.5C8.66319 0.5 10.2646 1.15556 11.575 2.46667C12.8854 3.77778 13.541 5.37917 13.5417 7.27083C13.5417 8.03472 13.4201 8.75521 13.1771 9.43229C12.934 10.1094 12.6042 10.7083 12.1875 11.2292L18.75 17.7917L17.2917 19.25ZM6.77083 11.9583C8.07292 11.9583 9.17986 11.5024 10.0917 10.5906C11.0035 9.67882 11.459 8.57222 11.4583 7.27083C11.4583 5.96875 11.0024 4.8618 10.0906 3.95C9.17882 3.03819 8.07222 2.58264 6.77083 2.58333C5.46875 2.58333 4.3618 3.03924 3.45 3.95104C2.53819 4.86285 2.08264 5.96944 2.08333 7.27083C2.08333 8.57292 2.53924 9.67986 3.45104 10.5917C4.36285 11.5035 5.46944 11.959 6.77083 11.9583Z" fill="white"/>
</svg>
