<svg width="22" height="25" viewBox="0 0 22 25" fill="none" xmlns="http://www.w3.org/2000/svg">
<path d="M5.60317 8.78462L13.0635 19.7538M9.73016 6.48462L16.3968 16.3923M5.60317 15.5077L14.6508 7.72308M8.14286 18.5154L16.3968 10.5538M4.04625 20.5026L5.03051 21.5448C6.51048 23.1119 8.57076 24 10.7263 24V24C13.1963 24 15.5217 22.8351 17.0008 20.8568L19.0561 18.1077C20.3181 16.4198 21 14.3689 21 12.2614V12.2614C21 10.0127 20.2238 7.83294 18.8025 6.09037L16.9583 3.82912C15.4981 2.03882 13.3103 1 11 1V1C8.68974 1 6.50193 2.03882 5.04175 3.82912L3.53609 5.67518C1.89581 7.68629 1 10.2224 1 12.8176V12.8176C1 15.6669 2.08989 18.431 4.04625 20.5026Z" stroke="black"/>
</svg>
